<svg width="815" height="263" viewBox="0 0 815 263" fill="none" xmlns="http://www.w3.org/2000/svg">
<g clip-path="url(#clip0_1130_12652)">
<path d="M815 0H0V263H815V0Z" fill="black"/>
<path fill-rule="evenodd" clip-rule="evenodd" d="M180.769 76.1346L185.14 48.0114C180.821 47.34 176.401 47 172 47H171.933V104.378H172C174.419 104.378 176.812 104.688 179.114 105.299L186.534 77.3396C184.636 76.8361 182.712 76.438 180.769 76.1346ZM158.163 108.084L143.885 83.4833L143.883 83.4811C142.201 84.4603 140.559 85.5211 138.988 86.666L121.934 63.3006C125.521 60.6818 129.339 58.3319 133.285 56.3091L146.263 81.6413C148.897 80.2942 151.632 79.1558 154.44 78.2391L145.611 51.179C149.829 49.8039 154.193 48.7517 158.585 48.0544L163.126 76.6252C161.204 76.9286 159.293 77.3461 157.412 77.8518L164.802 105.321C162.48 105.945 160.248 106.874 158.163 108.084ZM121.988 106.61L96.2101 93.4853C94.1938 97.447 92.4766 101.6 91.1101 105.831L118.635 114.731C119.535 111.949 120.662 109.218 121.99 106.612L121.988 106.61ZM301.68 105.188H324.212L347.905 158.813H335.2L316.642 116.808H313.3V158.813H301.68V105.188ZM347.905 158.813L371.595 105.188H394.128V158.813H382.507V116.808H379.165L360.608 158.813H347.905ZM538.649 158.813H527.029V105.188H538.649V158.813ZM527.029 158.813H514.324L495.766 116.808H488.123V158.813H476.502V105.188H503.336L527.029 158.813ZM424.835 105.188H446.094L469.786 158.813H457.081L449.363 141.339H421.566L413.848 158.813H401.143L424.835 105.188ZM432.406 116.808L426.701 129.719H444.228L438.523 116.808H432.406ZM545.105 116.808V105.188H610.953V116.808H583.839V158.813H572.219V116.808H545.105ZM629.029 105.188H617.409V158.813H667.978V147.193H629.029V105.188ZM729.307 105.188V116.808H686.054V125.415H723.551V137.036H686.054V147.193H729.307V158.813H674.434V105.188H729.307ZM220.502 103.86L195.91 118.15C197.121 120.233 198.051 122.467 198.677 124.785L226.144 117.382C226.65 119.263 227.067 121.172 227.373 123.091L255.939 118.542C255.24 114.152 254.185 109.786 252.806 105.566L225.75 114.412C224.831 111.604 223.693 108.871 222.344 106.237L247.667 93.2422C245.644 89.2999 243.29 85.4824 240.671 81.8973L217.313 98.9619C218.459 100.533 219.52 102.172 220.499 103.857L220.502 103.86ZM210.473 56.1882L210.474 56.1886V56.1865L210.473 56.1882ZM210.473 56.1882C206.507 54.1742 202.354 52.4593 198.128 51.0951L189.243 78.6243C192.023 79.5216 194.756 80.6492 197.367 81.9748L210.473 56.1882ZM200.203 82.9754L185.761 108.039C187.853 109.244 189.781 110.72 191.496 112.428L231.999 71.7877C228.857 68.6567 225.445 65.7495 221.855 63.1457L205.15 86.1839C203.558 85.0305 201.909 83.9567 200.205 82.9733L200.203 82.9754ZM148.049 118.226L122.993 103.769C123.976 102.065 125.052 100.417 126.205 98.8263L103.176 82.1104C105.78 78.5232 108.689 75.1124 111.822 71.9706L152.446 112.489C150.735 114.206 149.254 116.136 148.049 118.226ZM117.346 117.434L145.301 124.873H145.304C144.69 127.178 144.378 129.577 144.378 132H87C87 127.586 87.3422 123.149 88.0179 118.815L116.137 123.199C116.44 121.256 116.84 119.332 117.346 117.434ZM222.012 157.39L247.79 170.515C249.806 166.553 251.523 162.4 252.89 158.169L225.365 149.269C224.465 152.051 223.338 154.782 222.01 157.388L222.012 157.39ZM185.837 155.916L200.115 180.517C201.797 179.538 203.439 178.477 205.01 177.332L222.064 200.697C218.477 203.316 214.659 205.666 210.713 207.689L197.735 182.357C195.101 183.704 192.368 184.842 189.557 185.759L198.387 212.819C194.169 214.194 189.805 215.246 185.413 215.943L180.874 187.375C182.796 187.071 184.705 186.654 186.588 186.148L179.198 158.679C181.52 158.055 183.752 157.126 185.837 155.916ZM123.498 160.14L148.092 145.85C146.881 143.767 145.951 141.533 145.325 139.215L117.858 146.618C117.353 144.737 116.935 142.828 116.629 140.909L88.0609 145.458C88.7602 149.848 89.8147 154.214 91.194 158.434L118.25 149.587C119.169 152.396 120.307 155.129 121.656 157.763L96.3328 170.758C98.3556 174.7 100.71 178.518 103.329 182.103L126.688 165.038C125.541 163.467 124.48 161.827 123.5 160.143L123.498 160.14ZM133.527 207.812L133.526 207.811V207.814L133.527 207.812ZM133.527 207.812C137.493 209.826 141.646 211.541 145.872 212.905L154.757 185.376C151.977 184.478 149.244 183.351 146.633 182.025L133.527 207.812ZM143.797 181.025L158.239 155.961C156.147 154.756 154.219 153.28 152.504 151.572L112.001 192.212C115.142 195.343 118.555 198.251 122.145 200.854L138.85 177.816C140.442 178.969 142.091 180.043 143.795 181.027L143.797 181.025ZM195.951 145.774L221.007 160.231L221.005 160.233C220.022 161.937 218.946 163.586 217.792 165.176L240.822 181.892C238.218 185.479 235.309 188.89 232.176 192.032L191.554 151.511C193.265 149.794 194.746 147.864 195.951 145.774ZM164.886 158.701L157.466 186.66C159.364 187.164 161.288 187.562 163.231 187.865L158.863 215.989C163.182 216.66 167.601 217 172.002 217H172.069V159.622H172.002C169.583 159.622 167.191 159.312 164.888 158.701H164.886ZM198.696 139.127C199.31 136.821 199.622 134.424 199.622 132.002H257C257 136.416 256.658 140.853 255.982 145.187L227.861 140.801C227.558 142.744 227.157 144.668 226.652 146.566L198.696 139.127Z" fill="white"/>
</g>
<defs>
<clipPath id="clip0_1130_12652">
<rect width="815" height="263" fill="white"/>
</clipPath>
</defs>
</svg>
